<svg width="89" height="89" viewBox="0 0 89 89" fill="none" xmlns="http://www.w3.org/2000/svg">
<g filter="url(#filter0_i_2907_323)">
<rect width="89" height="89" rx="30" fill="white"/>
<rect x="0.5" y="0.5" width="88" height="88" rx="29.5" stroke="#F8D048"/>
<g filter="url(#filter1_d_2907_323)">
<path d="M35.2708 25.0856L24.4518 45.4284L26.5078 46.548L37.0927 26.6351C36.3647 26.2839 35.7376 25.7507 35.2708 25.0859V25.0856Z" fill="black"/>
<path d="M42.9294 25.0501C42.4672 25.7211 41.8427 26.2614 41.1153 26.6194L49.7144 42.787L51.1427 40.4925L42.9294 25.0501Z" fill="black"/>
<path d="M45.6136 54.4289C48.1826 54.6667 51.1502 54.0605 53.4832 52.915L51.7624 51.1054C49.9341 52.3779 47.5816 53.6026 45.6136 54.4289Z" fill="#F8D048"/>
<path d="M53.5066 63.3309C55.8887 62.9165 58.4204 61.6936 60.3421 60.1297L56.5265 56.1161C54.0323 59.2936 49.1797 62.3681 45.2391 63.3899C48.6657 63.8161 53.779 62.119 57.8843 59.3095C56.5479 60.7634 54.9331 62.2222 53.5066 63.3309Z" fill="#F8D048"/>
<path fill-rule="evenodd" clip-rule="evenodd" d="M39.0865 20C37.7778 20 36.7418 21.0471 36.7418 22.3692C36.7418 23.6917 37.7778 24.7347 39.0865 24.7347C40.3952 24.7347 41.4312 23.6917 41.4312 22.3692C41.4315 21.0471 40.3952 20 39.0865 20ZM50.1944 46.1895L54.5679 39.5267L71.3564 57.1965L64.5053 61.2532L50.1944 46.1895ZM16.3728 44.1166C16.067 43.7734 15.6174 43.59 15.1605 43.6402C14.386 43.7254 13.8344 44.4379 13.9847 45.2025C14.1809 46.201 14.4262 47.1886 14.7197 48.1618C15.1262 49.5096 16.7983 49.8733 17.8186 48.9034L17.9601 48.7689C18.8456 47.9272 18.7707 46.4991 17.8802 45.6627C17.3538 45.1683 16.8505 44.6526 16.3728 44.1166ZM47.493 50.4462C48.9234 49.7549 50.6681 49.9538 51.7624 51.1054C49.9341 52.3779 47.5816 53.6026 45.6136 54.4289C48.1826 54.6667 51.1502 54.0605 53.4832 52.915L56.5265 56.1161C54.0323 59.2936 49.1797 62.3681 45.2391 63.3899C48.6657 63.8161 53.779 62.119 57.8843 59.3095C56.5479 60.7634 54.9331 62.2222 53.5066 63.3309C55.8887 62.9165 58.4204 61.6936 60.3421 60.1297C61.0724 60.8983 61.0714 62.1142 60.2682 62.8063C55.4885 66.9249 48.8583 69.0002 41.4392 69C34.8242 69 28.7724 66.532 23.9979 62.4609C21.406 60.2508 21.7686 56.3352 24.2695 54.0228C26.0668 52.361 28.6285 51.9028 31.0266 52.3932C36.4092 53.4939 42.1996 53.0045 47.493 50.4462Z" fill="black"/>
<path d="M46.5853 59.3095C49.1543 59.5473 53.422 56.4497 55.755 55.3042L54.0342 53.4946C52.2059 54.767 48.5533 58.4832 46.5853 59.3095Z" fill="#F8D048"/>
<path d="M22.9339 47.2814L15.365 54.4723L17.0973 57.4647L26.1881 49.0514L22.9339 47.2814Z" fill="black"/>
<path d="M71.1183 47.1868C71.1183 47.1868 69.0763 47.7977 67.1389 49.5207L69.308 51.6022C70.76 49.791 71.1183 47.1868 71.1183 47.1868Z" fill="#F8D048"/>
<path d="M61.1303 41.2574C60.6849 40.8608 60.7558 41.762 59.6945 41.762L62.5036 44.6636C65.4032 42.1405 63.877 41.762 63.877 41.762C63.877 41.762 63.6897 42.0143 61.1927 42.519C61.1927 42.519 61.4965 41.5836 61.1303 41.2574Z" fill="#F8D048"/>
<path d="M67.5601 45.4206C67.5601 45.4206 66.0017 44.5805 64.0643 46.3037L65.8122 48.1619C67.2642 46.3506 67.5601 45.4206 67.5601 45.4206Z" fill="#F8D048"/>
<path d="M75.2144 48.8133C75.6127 48.3626 75.592 47.6758 75.1673 47.2505L63.1428 35.2089C62.6681 34.7335 61.8903 34.7793 61.4735 35.3072L58.8139 39.2186C58.4882 39.6311 58.4867 40.2161 58.8103 40.6303L59.6945 41.762C60.7558 41.762 60.6849 40.8608 61.1303 41.2574C61.4965 41.5836 61.1927 42.519 61.1927 42.519C63.6897 42.0143 63.877 41.762 63.877 41.762C63.877 41.762 65.4032 42.1405 62.5036 44.6636L64.0643 46.3037C66.0017 44.5805 67.5601 45.4206 67.5601 45.4206C67.5601 45.4206 67.2642 46.3506 65.8122 48.1619L67.1389 49.5207C69.0763 47.7977 71.1183 47.1868 71.1183 47.1868C71.1183 47.1868 70.76 49.791 69.308 51.6022L70.396 52.7151C70.8519 53.1789 71.6003 53.1589 72.0313 52.6713L75.2144 48.8133Z" fill="black"/>
<path d="M25.8404 57.7534C26.3246 59.475 28.1682 60.148 29.0183 58.5778L27.5656 56.208C26.7084 54.8097 25.181 55.16 25.5747 56.7559C25.6562 57.0863 25.7465 57.4195 25.8404 57.7534Z" fill="#F8D048"/>
<path d="M41.5745 63.0601C41.5984 64.5419 43.7212 64.5415 44.1659 63.1292C44.3739 62.4686 44.5548 61.7746 44.7458 61.0278C45.0382 59.8851 44.2894 58.7228 43.1342 58.5479L38.5048 57.847C38.4158 59.5546 38.6619 60.8643 38.9991 62.0023C39.467 63.5813 40.8146 64.3442 40.7167 62.6989C40.6179 61.0363 41.5476 61.3948 41.5745 63.0601Z" fill="#F8D048"/>
<path d="M31.4955 59.8103C31.3381 63.2131 33.7806 63.1997 35.3118 60.1648C35.402 59.986 35.5026 59.8089 35.6144 59.6337C37.8887 56.0715 34.5458 57.4193 32.722 58.3218C32.0329 58.6628 31.5314 59.0358 31.4955 59.8103Z" fill="#F8D048"/>
<path d="M14.0448 40.9943C14.3246 40.9609 14.4509 40.7511 14.209 40.6279L13.8158 40.7674C13.5838 40.8497 13.624 41.0362 13.8828 41.0118C13.9364 41.0068 13.9905 41.0007 14.0448 40.9943Z" fill="black"/>
<path d="M14.1696 41.3727C14.4494 41.3393 14.5758 41.1296 14.3338 41.0064L13.9406 41.1459C13.7086 41.2281 13.7489 41.4147 14.0077 41.3903C14.0613 41.3853 14.1154 41.3792 14.1696 41.3727Z" fill="black"/>
<path d="M14.2945 41.7512C14.5743 41.7178 14.7006 41.508 14.4587 41.3849L14.0655 41.5243C13.8335 41.6066 13.8737 41.7932 14.1325 41.7688C14.1861 41.7637 14.2402 41.7577 14.2945 41.7512Z" fill="black"/>
<path fill-rule="evenodd" clip-rule="evenodd" d="M14.0448 40.9943C13.9905 41.0007 13.9364 41.0068 13.8828 41.0118C13.624 41.0362 13.5838 40.8497 13.8158 40.7674L14.209 40.6279C14.4509 40.7511 14.3246 40.9609 14.0448 40.9943ZM14.1696 41.3727C14.1154 41.3792 14.0613 41.3853 14.0077 41.3903C13.7489 41.4147 13.7086 41.2281 13.9406 41.1459L14.3338 41.0064C14.5758 41.1296 14.4494 41.3393 14.1696 41.3727ZM14.2945 41.7512C14.2402 41.7577 14.1861 41.7637 14.1325 41.7688C13.8737 41.7932 13.8335 41.6066 14.0655 41.5243L14.4587 41.3849C14.7006 41.508 14.5743 41.7178 14.2945 41.7512Z" fill="#F8D048"/>
<path fill-rule="evenodd" clip-rule="evenodd" d="M14.8161 41.023C14.4218 40.4317 13.5 40.7109 13.5 41.4217C13.5 41.8646 13.8969 42.202 14.334 42.1307C14.8497 42.0467 15.106 41.4577 14.8161 41.023ZM13.8828 41.0118C13.9364 41.0068 13.9905 41.0007 14.0448 40.9943C14.3246 40.9609 14.4509 40.7511 14.209 40.6279L13.8158 40.7674C13.5838 40.8497 13.624 41.0362 13.8828 41.0118ZM14.0077 41.3903C14.0613 41.3853 14.1154 41.3792 14.1696 41.3727C14.4494 41.3393 14.5758 41.1296 14.3338 41.0064L13.9406 41.1459C13.7086 41.2281 13.7489 41.4147 14.0077 41.3903ZM14.1325 41.7688C14.1861 41.7637 14.2402 41.7577 14.2945 41.7512C14.5743 41.7178 14.7006 41.508 14.4587 41.3849L14.0655 41.5243C13.8335 41.6066 13.8737 41.7932 14.1325 41.7688Z" fill="black"/>
<path d="M47.2754 49.9961C48.7444 49.2861 50.5427 49.4045 51.8066 50.4648L51.8291 50.4502L52.124 50.7598L52.125 50.7607L53.8457 52.5703L56.1172 54.96L56.5869 55.4531H56.5859L56.8887 55.7715L60.3848 59.4492L60.7051 59.7852L61.0762 60.1768L61.0293 60.2148C61.5959 61.1578 61.4917 62.4126 60.5947 63.1855C55.7033 67.4004 48.947 69.5002 41.4395 69.5C34.6966 69.5 28.5315 66.9837 23.6738 62.8418C20.8012 60.3924 21.263 56.121 23.9297 53.6553C25.8723 51.8591 28.611 51.3889 31.127 51.9033C36.4128 52.9841 42.0901 52.5021 47.2754 49.9961ZM54.9307 39.1826L71.7188 56.8525L72.1514 57.3066L71.6113 57.627L64.7598 61.6836L64.417 61.8867L64.1426 61.5977L49.832 46.5342L49.5586 46.2461L49.7764 45.915L54.1504 39.252L54.4961 38.7246L54.9307 39.1826ZM23.1729 46.8418L26.4268 48.6123L27.0391 48.9453L26.5273 49.418L17.4365 57.832L16.9775 58.2568L16.665 57.7148L14.9326 54.7227L14.7344 54.3818L15.0205 54.1094L22.5898 46.9189L22.8535 46.668L23.1729 46.8418ZM61.0811 34.9971C61.683 34.2349 62.8104 34.1678 63.4971 34.8555L75.5215 46.8975C76.1287 47.5059 76.1602 48.4826 75.5986 49.1309L75.5996 49.1318L72.417 52.9893L72.4111 52.9961L72.4062 53.002C71.7835 53.7066 70.6984 53.7362 70.0391 53.0654L70.0381 53.0645L68.9502 51.9521L68.9424 51.9434L67.125 50.2002L67.1143 50.2109L66.793 49.8818L66.4023 49.5068L66.415 49.4951L65.8486 48.915L65.8428 48.9238L65.4482 48.5049L65.4434 48.5L65.1455 48.1943L65.1504 48.1875L63.7002 46.6465L63.6465 46.5898L62.1416 45.0088L62.1133 44.9795L59.4824 42.2617H59.4502L59.3135 42.0869L58.5146 41.2617H58.6689L58.416 40.9385C57.9578 40.352 57.9536 39.5291 58.4004 38.9375L61.0596 35.0264L61.0811 34.9971ZM15.1055 43.1436C15.7315 43.0747 16.3383 43.3267 16.7461 43.7842C17.2137 44.3088 17.7069 44.8134 18.2227 45.2979C19.3001 46.3098 19.4196 48.0707 18.3047 49.1309L18.1631 49.2656C16.902 50.4644 14.7668 50.0484 14.2412 48.3066C13.943 47.3177 13.6935 46.3135 13.4941 45.2988C13.2845 44.2319 14.0558 43.2592 15.1055 43.1436ZM35.6797 24.7988C36.0976 25.394 36.659 25.8707 37.3096 26.1846L37.7783 26.4102L37.5342 26.8701L26.9492 46.7822L26.7119 47.2285L26.2686 46.9873L24.2129 45.8672L23.7783 45.6309L24.0107 45.1934L34.8291 24.8506L35.4014 24.9932L35.6797 24.7988ZM43.3711 24.8154L51.584 40.2578L51.7197 40.5117L51.5674 40.7568L50.1387 43.0518L49.6807 43.7881L49.2734 43.0215L40.6738 26.8545L40.4316 26.3984L40.8945 26.1709C41.5447 25.8508 42.1037 25.3675 42.5176 24.7666L42.9844 24.0889L43.3711 24.8154ZM14.2441 40.085L14.4355 40.1826L14.5283 40.2363C14.5314 40.2384 14.534 40.241 14.5371 40.2432C14.8017 40.3126 15.0506 40.4735 15.2324 40.7461C15.7236 41.4833 15.2885 42.4815 14.4141 42.624C13.6729 42.7446 13.0001 42.1728 13 41.4219C13 41.1711 13.0684 40.9522 13.1816 40.7715C13.2079 40.668 13.2585 40.5802 13.3135 40.5166C13.4111 40.4037 13.5358 40.3359 13.6484 40.2959L14.042 40.1562L14.2441 40.085ZM39.0869 19.5C40.6763 19.5002 41.9318 20.7759 41.9316 22.3691C41.9316 23.9638 40.6754 25.2342 39.0869 25.2344C37.4983 25.2344 36.2422 23.9639 36.2422 22.3691C36.2422 20.7759 37.4972 19.5 39.0869 19.5Z" stroke="#F8D048"/>
</g>
</g>
<defs>
<filter id="filter0_i_2907_323" x="0" y="0" width="89" height="89" filterUnits="userSpaceOnUse" color-interpolation-filters="sRGB">
<feFlood flood-opacity="0" result="BackgroundImageFix"/>
<feBlend mode="normal" in="SourceGraphic" in2="BackgroundImageFix" result="shape"/>
<feColorMatrix in="SourceAlpha" type="matrix" values="0 0 0 0 0 0 0 0 0 0 0 0 0 0 0 0 0 0 127 0" result="hardAlpha"/>
<feOffset/>
<feGaussianBlur stdDeviation="2"/>
<feComposite in2="hardAlpha" operator="arithmetic" k2="-1" k3="1"/>
<feColorMatrix type="matrix" values="0 0 0 0 0 0 0 0 0 0 0 0 0 0 0 0 0 0 0.25 0"/>
<feBlend mode="normal" in2="shape" result="effect1_innerShadow_2907_323"/>
</filter>
<filter id="filter1_d_2907_323" x="8.5" y="19" width="72" height="60" filterUnits="userSpaceOnUse" color-interpolation-filters="sRGB">
<feFlood flood-opacity="0" result="BackgroundImageFix"/>
<feColorMatrix in="SourceAlpha" type="matrix" values="0 0 0 0 0 0 0 0 0 0 0 0 0 0 0 0 0 0 127 0" result="hardAlpha"/>
<feOffset dy="5"/>
<feGaussianBlur stdDeviation="2"/>
<feComposite in2="hardAlpha" operator="out"/>
<feColorMatrix type="matrix" values="0 0 0 0 0 0 0 0 0 0 0 0 0 0 0 0 0 0 0.25 0"/>
<feBlend mode="normal" in2="BackgroundImageFix" result="effect1_dropShadow_2907_323"/>
<feBlend mode="normal" in="SourceGraphic" in2="effect1_dropShadow_2907_323" result="shape"/>
</filter>
</defs>
</svg>
